# xmcd
#
# Track frame offsets:
#	150
#	17395
#	32467
#	46382
#	58325
#	74215
#	85920
#	101652
#	118412
#	132062
#
# Disc length: 1988
#
# Revision: 1
# Processed by: cddbd v1.5.1PL0 Copyright (c) Steve Scherf et al.
# Submitted via: dBpowerAMP V4.0
# Normalized: r0:TRMNUM
#
DISCID=8b07c20a
DTITLE=คำภีร์ - เสือตัวที่ 11
DYEAR=1900
DGENRE=Country
TTITLE0=ทองดี ทองเค
TTITLE1=เสือ 11 ตัว
TTITLE2=แรงยังมี
TTITLE3=คืนเปลี่ยว
TTITLE4=ช่างมันฉันไม่แคร์
TTITLE5=ตลอดเวลา
TTITLE6=อยู่บนดิน
TTITLE7=ถามยาย
TTITLE8=งง
TTITLE9=เหงา
EXTD=
EXTT0=
EXTT1=
EXTT2=
EXTT3=
EXTT4=
EXTT5=
EXTT6=
EXTT7=
EXTT8=
EXTT9=
PLAYORDER=
